<svg width="80" height="80" viewBox="0 0 80 80" fill="none" xmlns="http://www.w3.org/2000/svg"><g id="book"><g id="FINALS-(Dark-Mode-Compatible)"><g id="exp_book"><path id="Rectangle" d="M66.1136 9.20142H26.8658C25.1806 9.20142 23.8145 10.5675 23.8145 12.2527V70.3477C23.8145 72.0328 25.1806 73.399 26.8658 73.399H66.1136C67.7988 73.399 69.1649 72.0328 69.1649 70.3477V12.2527C69.1649 10.5675 67.7988 9.20142 66.1136 9.20142Z" fill="#F9B008"/><path id="Path" d="M55.6187 13.1909H64.3313C65.0182 13.1909 65.575 13.7477 65.575 14.4346V68.8278C65.575 69.5147 65.0182 70.0715 64.3313 70.0715H55.6187C54.9318 70.0715 54.375 69.5147 54.375 68.8278V14.4346C54.375 13.7477 54.9318 13.1909 55.6187 13.1909Z" fill="white"/><path id="Rectangle_2" d="M14.7767 9.20142H14.7759C13.1344 9.20142 11.8037 10.5321 11.8037 12.1736V70.4267C11.8037 72.0682 13.1344 73.399 14.7759 73.399H14.7767C16.4183 73.399 17.749 72.0682 17.749 70.4267V12.1736C17.749 10.5321 16.4183 9.20142 14.7767 9.20142Z" fill="#FFBA01"/><path id="Rectangle_3" d="M32.271 6.02344H23.8382C22.8753 6.02344 22.0947 6.80402 22.0947 7.76693V9.06604C22.0947 10.0289 22.8753 10.8095 23.8382 10.8095H32.271C33.2339 10.8095 34.0145 10.0289 34.0145 9.06604V7.76693C34.0145 6.80402 33.2339 6.02344 32.271 6.02344Z" fill="#FC4848"/><path id="Rectangle_4" d="M57.0977 9.07471H19.6099C17.9247 9.07471 16.5586 10.4408 16.5586 12.126V70.2209C16.5586 71.9061 17.9247 73.2722 19.6099 73.2722H57.0977C58.7828 73.2722 60.149 71.9061 60.149 70.2209V12.126C60.149 10.4408 58.7828 9.07471 57.0977 9.07471Z" fill="#FFC733"/><path id="1" d="M38.6967 50.5914C38.6967 51.9008 39.5222 52.6979 40.6893 52.6979C41.8279 52.6979 42.6819 51.9008 42.6819 50.5914V35.4195C42.6819 33.9678 41.8279 33 40.4616 33C39.5507 33 38.7821 33.37 38.042 33.8824L34.9963 35.9888C34.3131 36.4443 34 37.0705 34 37.6683C34 38.6361 34.7401 39.3477 35.651 39.3477C36.0495 39.3477 36.4765 39.2339 36.8465 38.9777L38.6398 37.7537H38.6967V50.5914Z" fill="#CD7900"/><path id="Path_2" d="M24.7175 7.76685H33.0836C33.5619 7.76685 33.9496 8.15455 33.9496 8.6328V20.1852C33.9496 21.1417 33.1742 21.9171 32.2177 21.9171C31.8781 21.9171 31.5459 21.8172 31.2626 21.6299L29.0209 20.148L26.507 21.7325C25.6978 22.2425 24.6283 22 24.1183 21.1908C23.944 20.9143 23.8516 20.5942 23.8516 20.2674V8.6328C23.8516 8.15455 24.2393 7.76685 24.7175 7.76685Z" fill="#FC4848"/></g></g></g></svg>