<svg width="80" height="80" viewBox="0 0 80 80" fill="none" xmlns="http://www.w3.org/2000/svg"><g id="Frame 3007"><g id="Group-36"><path id="Oval-74" d="M39.9997 68.6538C55.8248 68.6538 68.6537 55.825 68.6537 39.9998C68.6537 24.1746 55.8248 11.3458 39.9997 11.3458C24.1745 11.3458 11.3457 24.1746 11.3457 39.9998C11.3457 55.825 24.1745 68.6538 39.9997 68.6538Z" fill="white"/><path id="Oval-74 (Stroke)" fill-rule="evenodd" clip-rule="evenodd" d="M40 14.6922C26.0228 14.6922 14.6921 26.0229 14.6921 40.0001C14.6921 53.9773 26.0228 65.3081 40 65.3081C53.9772 65.3081 65.3079 53.9773 65.3079 40.0001C65.3079 26.0229 53.9772 14.6922 40 14.6922ZM8 40.0001C8 22.327 22.3269 8.00012 40 8.00012C57.6731 8.00012 72 22.327 72 40.0001C72 57.6732 57.6731 72.0001 40 72.0001C22.3269 72.0001 8 57.6732 8 40.0001Z" fill="#0083C9"/><path id="Mask" d="M33.404 31.566L49.4109 26.2432C50.8137 25.7767 52.3291 26.5358 52.7956 27.9386C52.9809 28.4956 52.9778 29.0981 52.787 29.6533L47.3315 45.5274C47.0633 46.3077 46.4503 46.9207 45.67 47.1889L29.7959 52.6445C28.3978 53.125 26.8749 52.3811 26.3944 50.983C26.2036 50.4278 26.2005 49.8253 26.3858 49.2683L31.7086 33.2614C31.9749 32.4606 32.6032 31.8323 33.404 31.566Z" fill="#C9C8C8"/><g id="Rectangle-21"><mask id="mask0_8083_82142" style="mask-type:alpha" maskUnits="userSpaceOnUse" x="26" y="26" width="27" height="27"><path id="Mask_2" d="M33.403 31.566L49.4099 26.2432C50.8128 25.7767 52.3281 26.5358 52.7946 27.9386C52.9799 28.4956 52.9769 29.0981 52.7861 29.6533L47.3305 45.5274C47.0623 46.3077 46.4493 46.9207 45.669 47.1889L29.7949 52.6445C28.3968 53.125 26.8739 52.3811 26.3934 50.983C26.2026 50.4278 26.1996 49.8253 26.3848 49.2683L31.7076 33.2614C31.9739 32.4606 32.6022 31.8323 33.403 31.566Z" fill="#C9C8C8"/></mask><g mask="url(#mask0_8083_82142)"><path id="Vector" d="M78.2075 33.0535L47.9199 2.76599L25.2043 25.4817L55.4918 55.7692L78.2075 33.0535Z" fill="#FC4848"/></g></g></g></g></svg>