<svg width="88" height="76" viewBox="0 0 88 76" fill="none" xmlns="http://www.w3.org/2000/svg"><path fill-rule="evenodd" clip-rule="evenodd" d="M10.8443 9.97472C10.9729 8.83988 12.1777 8.31462 13.2355 8.73751L19.3069 11.1648C19.5551 10.8397 19.7773 10.5646 19.9695 10.3473C22.6792 7.28306 25.9576 6.52074 30.4792 5.46979C31.7321 5.17858 33.0807 4.86574 34.5388 4.47504C41.2595 2.67422 46.1035 6.70783 47.2537 11.0003L50.5347 23.2451L56.7492 46.4569C57.5453 49.4307 55.7803 52.4873 52.8067 53.2841L30.2838 59.3191C27.289 60.1214 24.215 58.3254 23.4375 55.3241C23.0075 53.6638 22.5996 52.0952 22.4155 51.4083C21.8083 48.9677 22.1347 46.3892 23.3296 44.1833L26.3872 38.5395C26.4801 38.3672 26.3832 38.1481 26.1885 38.1338C25.888 38.1122 25.6022 38.1722 25.3634 38.4276L22.87 41.0945C20.0473 44.1125 15.5106 44.7485 11.9597 42.6247C10.0958 41.5099 8.43573 39.6857 7.36126 37.8201C6.16115 35.7363 5.85328 34.0268 6.17747 32.6475C6.24739 32.2061 6.39818 31.7696 6.63716 31.3597C8.54558 28.0864 11.0413 23.9088 13.4044 20.1025C11.4563 16.9991 10.5002 13.0165 10.8443 9.97472Z" fill="#616161"/><path d="M24.2021 22.437L24.9963 25.4008" stroke="#262626" stroke-width="5.04752" stroke-linecap="round"/><path d="M73.1578 18.0417C81.6271 20.3112 86.6532 29.0163 84.3838 37.4857C83.0911 42.3101 79.7086 46.0135 75.4782 47.8907L78.2354 60.609C79.8702 68.149 72.9464 74.7463 65.4941 72.7494L52.4399 69.2516C44.9876 67.2547 42.29 58.0795 47.4758 52.367L56.2228 42.7313C53.4979 38.9904 52.4202 34.0917 53.7128 29.2674C55.9822 20.7979 64.6883 15.7723 73.1578 18.0417Z" fill="#B0CDE2" stroke="white" stroke-width="4.03802" stroke-linejoin="round"/><circle opacity="0.4" cx="66.6911" cy="28.2849" r="5.22821" fill="white"/></svg>