<svg xmlns="http://www.w3.org/2000/svg" x="0" y="3036" width="82" height="66" viewBox="0 0 82 66" fill="none"><path d="M63.437 4H18.563C13.6282 4 11.8668 4.58451 10.0703 5.54532C8.11953 6.58859 6.58859 8.11953 5.54532 10.0703C4.58451 11.8668 4 13.6282 4 18.563V47.437C4 52.3718 4.58451 54.1332 5.54532 55.9297C6.58859 57.8805 8.11953 59.4114 10.0703 60.4547C11.8668 61.4155 13.6282 62 18.563 62H63.437C68.3718 62 70.1332 61.4155 71.9297 60.4547C73.8805 59.4114 75.4114 57.8805 76.4547 55.9297C77.4155 54.1332 78 52.3718 78 47.437V18.563C78 13.6282 77.4155 11.8668 76.4547 10.0703C75.4114 8.11953 73.8805 6.58859 71.9297 5.54532C70.1332 4.58451 68.3718 4 63.437 4Z" fill="#FF4B4B" stroke="white" stroke-width="4"/><path d="M6 21.6707C6 16.1778 6 13.4313 7.06901 11.3332C8.00933 9.48773 9.50976 7.9873 11.3553 7.04697C13.4533 5.97797 16.1998 5.97797 21.6928 5.97797H60.3643C65.8573 5.97797 68.6038 5.97797 70.7018 7.04697C72.5473 7.9873 74.0477 9.48773 74.988 11.3332C76.057 13.4313 76.0571 16.1778 76.0571 21.6707V44.3292C76.0571 49.8222 76.057 52.5687 74.988 54.6667C74.0477 56.5122 72.5473 58.0126 70.7018 58.953C68.6038 60.022 65.8573 60.022 60.3643 60.022H21.6928C16.1998 60.022 13.4533 60.022 11.3553 58.953C9.50976 58.0126 8.00933 56.5122 7.06901 54.6667C6 52.5687 6 49.8222 6 44.3292V21.6707Z" fill="#1CB0F6"/><path fill-rule="evenodd" clip-rule="evenodd" d="M76.0571 33V44.3292C76.0571 49.8222 76.0571 52.5687 74.988 54.6668C74.0477 56.5122 72.5473 58.0127 70.7018 58.953C68.6038 60.022 65.8573 60.022 60.3643 60.022H21.6928C16.1998 60.022 13.4533 60.022 11.3553 58.953C9.50976 58.0127 8.00933 56.5122 7.06901 54.6668C6 52.5687 6 49.8222 6 44.3292V33H76.0571Z" fill="#FF4B4B"/><path fill-rule="evenodd" clip-rule="evenodd" d="M7.06901 11.3332C6 13.4313 6 16.1778 6 21.6708V44.3292C6 49.8222 6 52.5687 7.06901 54.6667C7.60014 55.7092 8.30998 56.6415 9.15977 57.425C9.20063 57.4461 9.23744 57.4708 9.26982 57.4995L41.0284 33L9.26982 8.50049C9.23437 8.53191 9.19361 8.56026 9.14805 8.58585C8.30345 9.36708 7.5977 10.2956 7.06901 11.3332Z" fill="#EEEEEE"/><path d="M33.4332 30.7523C34.0307 30.2162 34.9836 30.5979 35.0457 31.3982L35.0514 31.4717C35.0761 31.7896 35.2556 32.0749 35.5314 32.2347L35.5952 32.2717C36.2897 32.6743 36.2212 33.6985 35.4792 34.0049L35.411 34.033C35.1164 34.1547 34.9005 34.4136 34.8337 34.7253L34.8182 34.7974C34.65 35.5823 33.6548 35.8337 33.1341 35.2227L33.0862 35.1665C32.8795 34.9239 32.5665 34.7986 32.2495 34.8314L32.1761 34.839C31.3776 34.9215 30.831 34.0527 31.2512 33.3687L31.2898 33.3058C31.4566 33.0342 31.4791 32.6978 31.35 32.4064L31.3201 32.339C30.9948 31.6051 31.6523 30.8168 32.4326 31.005L32.5043 31.0223C32.8142 31.097 33.141 31.0145 33.3783 30.8016L33.4332 30.7523Z" fill="#FFC800"/><path d="M9.80648 47.4228C9.95842 46.6346 10.9483 46.3627 11.4815 46.9628L11.5305 47.0179C11.7422 47.2562 12.0577 47.375 12.374 47.3357L12.4472 47.3266C13.2438 47.2275 13.8082 48.0849 13.4023 48.7774L13.365 48.8411C13.2038 49.1161 13.1883 49.4528 13.3235 49.7415L13.3548 49.8083C13.6951 50.5353 13.0541 51.3371 12.27 51.165L12.198 51.1492C11.8866 51.0809 11.5616 51.1702 11.3288 51.388L11.2749 51.4384C10.6887 51.9867 9.72809 51.6249 9.64941 50.826L9.64218 50.7526C9.61093 50.4353 9.42558 50.1538 9.14654 49.9997L9.08197 49.964C8.37926 49.5759 8.42658 48.5505 9.16205 48.2288L9.22963 48.1993C9.52169 48.0715 9.73218 47.8082 9.79252 47.4952L9.80648 47.4228Z" fill="#FFC800"/><path d="M9.80648 18.0444C9.95842 18.8326 10.9483 19.1045 11.4815 18.5044L11.5305 18.4493C11.7422 18.211 12.0577 18.0922 12.374 18.1315L12.4472 18.1406C13.2438 18.2397 13.8082 17.3823 13.4023 16.6897L13.365 16.6261C13.2038 16.3511 13.1883 16.0144 13.3235 15.7257L13.3548 15.6589C13.6951 14.9318 13.0541 14.1301 12.27 14.3021L12.198 14.3179C11.8866 14.3863 11.5616 14.297 11.3288 14.0792L11.2749 14.0288C10.6887 13.4804 9.72809 13.8423 9.64941 14.6412L9.64218 14.7146C9.61093 15.0318 9.42558 15.3134 9.14654 15.4675L9.08197 15.5032C8.37926 15.8912 8.42658 16.9166 9.16205 17.2383L9.22963 17.2679C9.52169 17.3957 9.73218 17.6589 9.79252 17.9719L9.80648 18.0444Z" fill="#FFC800"/><path d="M17.4503 25.0563C17.6777 24.0495 19.1123 24.0495 19.3398 25.0563L19.8653 27.383C20.0127 28.0355 20.7615 28.3457 21.3272 27.9885L23.344 26.7149C24.2167 26.1638 25.2311 27.1782 24.68 28.051L23.4064 30.0678C23.0493 30.6334 23.3594 31.3822 24.012 31.5296L26.3386 32.0552C27.3454 32.2826 27.3454 33.7172 26.3386 33.9446L24.012 34.4702C23.3594 34.6176 23.0493 35.3664 23.4064 35.932L24.68 37.9488C25.2311 38.8216 24.2167 39.836 23.344 39.2849L21.3272 38.0113C20.7615 37.6541 20.0127 37.9643 19.8653 38.6169L19.3398 40.9435C19.1123 41.9503 17.6777 41.9503 17.4503 40.9435L16.9247 38.6169C16.7773 37.9643 16.0285 37.6541 15.4629 38.0113L13.4461 39.2849C12.5733 39.836 11.5589 38.8216 12.11 37.9488L13.3836 35.932C13.7408 35.3664 13.4306 34.6176 12.7781 34.4702L10.4515 33.9446C9.44461 33.7172 9.44461 32.2826 10.4515 32.0552L12.7781 31.5296C13.4306 31.3822 13.7408 30.6334 13.3836 30.0678L12.11 28.051C11.5589 27.1782 12.5733 26.1638 13.4461 26.7149L15.4629 27.9885C16.0285 28.3457 16.7773 28.0355 16.9247 27.383L17.4503 25.0563Z" fill="#FFC800"/></svg>